<svg t="1685075391294" class="icon" viewBox="0 0 1024 1024" version="1.1" xmlns="http://www.w3.org/2000/svg" p-id="13899" width="200" height="200"><path d="M425.04967977 296.22534906m-33.84785102 0a33.84785101 33.84785101 0 1 0 67.69570065 0 33.84785101 33.84785101 0 1 0-67.69570065 0Z" fill="#ffffff" p-id="13900"></path><path d="M553.6789185 296.22534906m-33.84785102 0a33.84785101 33.84785101 0 1 0 67.69570203 0 33.84785101 33.84785101 0 1 0-67.69570203 0Z" fill="#ffffff" p-id="13901"></path><path d="M682.30815724 296.22534906m-33.84784963 0a33.84785101 33.84785101 0 1 0 67.69570064 0 33.84785101 33.84785101 0 1 0-67.69570064 0Z" fill="#ffffff" p-id="13902"></path><path d="M252.98113021 668.43320225c-54.12693457 0-98.15876695-44.03183238-98.15876696-98.16617378 0-54.12693457 44.03923921-98.16617379 98.15876696-98.1661738 54.12693457 0 98.16617379 44.03923921 98.16617379 98.1661738s-44.03923921 98.16617379-98.16617379 98.16617378z m0-162.48449659c-35.46247509 0-64.31091595 28.8558477-64.31091594 64.31832281s28.84844224 64.31832278 64.31091594 64.31832276 64.31832278-28.8558477 64.31832278-64.31832276-28.8558477-64.31832278-64.31832278-64.31832281zM421.96115587 773.87999598a155.21128208 155.21128208 0 0 0-29.11507709 17.39794399 155.52235652 155.52235652 0 0 0-18.21266218-28.63365245c-28.5373678-35.74392221-72.47291417-58.65973236-121.65228639-58.65973236-85.84911093 0-155.70752036 69.82878211-155.70752036 155.70011353 0 3.48847617 0.1703502 6.96954688 0.40736046 10.42839711h-33.95154248a221.89969523 221.89969523 0 0 1-0.30366761-10.42839711c0-104.52097862 85.02698592-189.55536999 189.56277682-189.55537138 61.46680779 0 116.171453 29.41874469 150.83402219 74.87263187a190.57006569 190.57006569 0 0 1 18.13859664 28.8780668zM486.53129981 724.28585921c-54.13434141 0-98.16617379-44.03923921-98.1661724-98.16617378 0-54.13434141 44.03183238-98.16617379 98.1661724-98.1661738 54.12693457 0 98.16617379 44.03183238 98.1661738 98.1661738 0 54.12693457-44.03923921 98.16617379-98.1661738 98.16617378z m0-162.48449659c-35.46247509 0-64.31832278 28.8558477-64.31832277 64.31832281s28.8558477 64.31832278 64.31832277 64.31832276 64.31832278-28.8558477 64.31832416-64.31832276-28.8558477-64.31832278-64.31832416-64.31832281z" fill="#ffffff" p-id="13903"></path><path d="M676.10148348 915.53732564c0 3.48847617-0.14072425 6.96954688-0.30366761 10.42839712h-33.95154111c0.2370089-3.45885024 0.40735909-6.9473264 0.40735909-10.42839712 0-53.27518362-26.87830412-100.36591398-67.79939349-128.42926259a152.8189726 152.8189726 0 0 0-30.32974752-16.20549267 154.44840895 154.44840895 0 0 0-57.57097253-11.0727651 154.98908685 154.98908685 0 0 0-93.70744153 31.44813469c-37.67702755 28.43367632-62.01489111 73.55426857-62.01489111 124.25938567 0 3.48847617 0.1703502 6.96954688 0.37032632 10.42839712h-33.92191655a180.95638676 180.95638676 0 0 1-0.30366761-10.42839712c0-62.7259192 30.60378919-118.40081914 77.65007995-152.90044495a188.29625996 188.29625996 0 0 1 111.91269686-36.66233187c29.27061362 0 56.99326323 6.66587926 81.77551867 18.55336256a192.22172253 192.22172253 0 0 1 30.64082196 18.48670246c46.7500286 34.52184494 77.14643621 90.04120834 77.14643621 152.5227118zM695.12886383 694.11164821c-54.12693457 0-98.16617379-44.03183238-98.16617241-98.16617379 0-54.12693457 44.03923921-98.15876695 98.16617241-98.15876695 54.13434141 0 98.16617379 44.03183238 98.1661738 98.15876695s-44.03183238 98.16617379-98.1661738 98.16617379z m0-162.47708974c-35.45506827 0-64.31832278 28.8558477-64.31832278 64.31091595 0 35.46247509 28.8558477 64.31832278 64.31832278 64.3183228 35.46988053 0 64.31832278-28.8558477 64.31832416-64.3183228 0-35.45506827-28.84844224-64.31091595-64.31832416-64.31091595z" fill="#ffffff" p-id="13904"></path><path d="M884.68423521 885.348301c0 3.51810211-0.11109831 7.00657966-0.31107444 10.45802305h-33.91450972c0.19997613-3.4514434 0.37773315-6.9473264 0.37773316-10.45802305 0-85.84911093-69.83618895-155.70752036-155.70752038-155.707519a154.64838645 154.64838645 0 0 0-96.1590029 33.38123867 152.69306199 152.69306199 0 0 0-24.51562057 24.09344783 152.8189726 152.8189726 0 0 0-30.32974752-16.20549128 191.59216682 191.59216682 0 0 1 24.20454612-26.37466039c33.61084211-30.26308881 78.08706636-48.74238582 126.79982487-48.74238583 104.52838406-0.00740683 189.55536999 85.02698592 189.55537138 189.55537zM702.06137795 169.86250784H386.1135408c-6.26592564 0-12.39112839 0.67399393-18.27932089 2.02198317-37.91403646 8.36938117-66.34771278 42.21723218-66.34771278 82.59764367v83.50124103c0 46.68336989 37.98069517 84.62703366 84.62703367 84.62703365H459.29748305l111.2016688 83.06425465-10.15435407-28.84103542-19.05700767-54.22321923h160.78099468c40.38781831 0 74.26529525-28.43367632 82.59023683-66.34771276 1.35539469-5.88819248 2.02938999-12.01339525 2.02938999-18.27932089V254.4895415c0-46.6463385-37.97328833-84.62703366-84.62703366-84.62703366z m0 218.90745598H386.1135408a50.8310277 50.8310277 0 0 1-50.77177583-50.77177583V254.4895415a50.80140175 50.80140175 0 0 1 50.77177583-50.77177583h315.94783715a50.83843453 50.83843453 0 0 1 50.77177581 50.77177583v83.50124104c0 7.24358855-1.51833943 14.07981664-4.25875473 20.3087095a50.77918265 50.77918265 0 0 1-46.51302108 30.47047178z" fill="#ffffff" p-id="13905"></path><path d="M624.65571373 412.53011948l-8.36197434-23.76015566h-51.89756983l45.29094244 33.847851h18.50892432l-3.54032259-10.08769534z m141.72398699-306.97852759H450.42445674c-40.38781831 0-74.23566932 28.43367632-82.59764228 66.34030595a81.55332204 81.55332204 0 0 0-2.02938999 18.28672771v17.79789488a50.31997713 50.31997713 0 0 1 20.3087095-4.25875476h13.5391415v-13.53914012c0-7.21396261 1.51833943-14.07981664 4.26616157-20.30871089a50.78658948 50.78658948 0 0 1 46.5130197-30.46306632h315.94783854a50.83843453 50.83843453 0 0 1 50.77177582 50.77177721v83.50123965a50.77918265 50.77918265 0 0 1-30.46306633 46.50561426 50.32738396 50.32738396 0 0 1-20.30870949 4.26616156h-13.53914152v13.53914152c0 7.24358855-1.51833943 14.07981664-4.25875473 20.3087095h17.79789625c6.26592564 0 12.39112839-0.68140077 18.2793195-2.02939 37.91403646-8.32494158 66.34771278-42.20982534 66.34771278-82.59023684V190.17862555c0-46.6463385-37.97328833-84.62703366-84.61962684-84.62703366z" fill="#ffffff" p-id="13906"></path></svg>