<svg t="1685075419216" class="icon" viewBox="0 0 1024 1024" version="1.1" xmlns="http://www.w3.org/2000/svg" p-id="15075" width="200" height="200"><path d="M112.99 107.96c18.66-14.82 42.15-23.49 65.98-24.21 221.67-0.01 443.33 0.01 665-0.01 35.14 0.57 69.22 19.04 89.33 47.79 12.89 18.14 20.21 40.18 20.7 62.43 0.01 173.36-0.01 346.72 0.01 520.07 0.36 21.66-5.84 43.32-17.42 61.61-18.37 29.42-50.91 49.42-85.51 52.25-11 0.76-22.05 0.17-33.07 0.36-50.85 0.02-101.7-0.04-152.55 0.03 46.92 22.44 93.73 45.13 140.63 67.62 6.51 2.98 11.54 9.06 13.01 16.1 2.08 8.63-1.4 18.26-8.52 23.56-6.85 5.42-16.81 6.25-24.58 2.39L563.31 830.76c-2.31-1.06-4.55-2.65-7.2-2.52-29.38 0.01-58.77 0.02-88.15 0-1.35-0.06-2.68 0.25-3.88 0.86-75.35 36.33-150.74 72.56-226.1 108.86-4.82 2.46-10.48 2.87-15.74 1.81-9.21-2.06-16.65-10.24-17.72-19.63-1.41-9.61 3.94-19.74 12.73-23.91 47.03-22.65 94.09-45.25 141.1-67.94-58.46-0.08-116.93-0.03-175.4-0.03-31.62 0.36-62.9-13.79-83.95-37.31-14.15-15.62-23.8-35.27-27.43-56.04-1.74-9.51-1.89-19.23-1.82-28.87V215.98c0.07-13.68-0.57-27.51 2.21-40.99 5.06-26.3 19.96-50.52 41.03-67.03m65.26 22.39c-20.43 1.41-39.79 12.94-50.92 30.11-7.59 11.3-11.19 24.98-11.07 38.53-0.02 171.32-0.01 342.63-0.01 513.95-0.1 13.13 3.24 26.38 10.37 37.48 9.4 15.11 25.07 26.17 42.48 29.89 9.8 2.31 19.93 1.17 29.9 1.44h644.05c16.82-0.4 33.26-7.75 45.06-19.69 11.85-11.84 18.98-28.3 19.38-45.06 0.02-172.69-0.01-345.38 0.02-518.07 0.42-14.5-4.02-29.12-12.58-40.84-10.24-14.41-26.45-24.41-43.92-27.11-6.94-1.21-14.02-0.58-21.02-0.73-217.25 0.07-434.5-0.14-651.74 0.1z" p-id="15076" fill="#ffffff"></path><path d="M698.45 249.45c6.43-6.6 16.82-8.79 25.35-5.26 5.53 2.01 9.17 6.84 13.4 10.65 31.85 31.81 63.67 63.65 95.5 95.48 3.74 3.71 6.68 8.41 7.43 13.7 1.8 9.51-3.16 19.84-11.76 24.3-8.56 4.85-20.16 3.4-27.18-3.51-19.82-19.8-39.61-39.63-59.43-59.42-0.03 83.55 0.02 167.1-0.03 250.65-0.54 35.34-18.65 69.75-47.3 90.39-30.2 22.34-71.59 28.19-106.84 15.26-8.03-2.95-15.79-6.68-22.96-11.35-5.6-3.6-9.32-9.83-10.12-16.41-1.22-8.8 3.13-18.1 10.75-22.7 7.5-4.79 17.69-4.61 25.12 0.27 13.38 8.46 29.79 12.08 45.47 9.79 18.45-2.46 35.68-12.85 46.45-28.04 8.21-11.35 12.79-25.24 12.95-39.25V318.62c-20.76 20.75-41.51 41.51-62.26 62.26-4.17 4.22-9.96 6.78-15.89 6.89-8.22 0.28-16.5-4.07-20.64-11.23-5.49-8.87-3.97-21.31 3.5-28.61 32.81-32.84 65.64-65.67 98.49-98.48zM230.39 268.51c1.81-0.52 3.7-0.74 5.59-0.77 62.66 0.02 125.32 0.01 187.99 0.01 9.22 0.04 17.92 6.47 20.89 15.16 2.79 7.45 1.39 16.26-3.59 22.47-4.52 5.84-11.93 9.03-19.26 8.87-61.33 0-122.66 0.01-183.99-0.01-5.5 0.08-11.06-1.47-15.42-4.87-6.76-5.05-10.27-14.04-8.75-22.34 1.32-8.67 8.06-16.23 16.54-18.52zM231.41 450.53c3.8-0.84 7.73-0.48 11.59-0.53h173.98c4.38 0.04 8.89-0.39 13.13 1.01 8.36 2.53 14.83 10.27 15.92 18.92 1.3 8.27-2.36 17.06-9.13 21.97-4.22 3.24-9.61 4.66-14.87 4.62-61.67-0.04-123.34-0.01-185.01-0.02-4.75-0.02-9.5-1.38-13.41-4.08-7.82-5.17-11.74-15.44-9.47-24.51 1.79-8.47 8.86-15.45 17.27-17.38zM231.36 616.46c4.14-0.94 8.43-0.7 12.65-0.71 59.33 0.01 118.67-0.01 178.01 0.01 4.96-0.01 10 1.21 14.1 4.09 8.02 5.24 11.94 15.82 9.42 25.05-1.78 7.37-7.45 13.59-14.59 16.1-4.45 1.71-9.28 1.2-13.93 1.25-60.34 0.01-120.67-0.01-181 0.01-11.17 0.11-21.2-9.3-22.33-20.32-1.69-11.39 6.43-23.05 17.67-25.48z" p-id="15077" fill="#ffffff"></path></svg>