<svg t="1685065789484" class="icon" viewBox="0 0 1024 1024" version="1.1" xmlns="http://www.w3.org/2000/svg" p-id="3194" width="64" height="64"><path d="M803.2 265.6H672V115.2c0-9.6 9.6-19.2 19.2-19.2s19.2 9.6 19.2 19.2v115.2h92.8c9.6 0 19.2 9.6 19.2 19.2s-6.4 16-19.2 16z" fill="#ffffff" p-id="3195"></path><path d="M803.2 950.4H204.8c-38.4 0-67.2-28.8-67.2-67.2V131.2c0-38.4 32-67.2 67.2-67.2h515.2c9.6 0 22.4 3.2 28.8 12.8l112 134.4c6.4 6.4 9.6 16 9.6 22.4v652.8c0 35.2-32 64-67.2 64zM211.2 876.8h582.4V246.4l-92.8-108.8H211.2v739.2z" fill="#ffffff" p-id="3196"></path><path d="M726.4 556.8h-252.8c-9.6 0-19.2-9.6-19.2-19.2s9.6-19.2 19.2-19.2h252.8c9.6 0 19.2 9.6 19.2 19.2s-9.6 19.2-19.2 19.2zM726.4 649.6h-252.8c-9.6 0-19.2-9.6-19.2-19.2s9.6-19.2 19.2-19.2h252.8c9.6 0 19.2 9.6 19.2 19.2-3.2 9.6-9.6 19.2-19.2 19.2z" fill="#ffffff" p-id="3197"></path><path d="M598.4 764.8c-9.6 0-19.2-9.6-19.2-19.2v-252.8c0-9.6 9.6-19.2 19.2-19.2s19.2 9.6 19.2 19.2v252.8c0 9.6-9.6 19.2-19.2 19.2z" fill="#ffffff" p-id="3198"></path><path d="M598.4 512c-6.4 0-12.8-3.2-16-9.6l-67.2-115.2c-6.4-9.6-3.2-19.2 6.4-25.6 9.6-6.4 19.2-3.2 25.6 6.4l67.2 115.2c6.4 9.6 3.2 19.2-6.4 25.6-3.2 3.2-6.4 3.2-9.6 3.2z" fill="#ffffff" p-id="3199"></path><path d="M598.4 512c-3.2 0-6.4 0-9.6-3.2-9.6-6.4-12.8-16-6.4-25.6l67.2-115.2c6.4-9.6 16-12.8 25.6-6.4 9.6 6.4 12.8 16 6.4 25.6l-67.2 115.2c-3.2 6.4-9.6 9.6-16 9.6z" fill="#ffffff" p-id="3200"></path><path d="M348.8 771.2c-9.6 0-19.2-9.6-19.2-19.2v-416c0-9.6 9.6-19.2 19.2-19.2s19.2 9.6 19.2 19.2v419.2c-3.2 9.6-9.6 16-19.2 16z" fill="#ffffff" p-id="3201"></path><path d="M278.4 441.6c-3.2 0-6.4 0-12.8-3.2-9.6-6.4-9.6-19.2-3.2-25.6l67.2-89.6c6.4-9.6 19.2-9.6 25.6-3.2 9.6 6.4 9.6 19.2 3.2 25.6l-67.2 89.6c0 6.4-6.4 6.4-12.8 6.4z" fill="#ffffff" p-id="3202"></path><path d="M416 441.6c-6.4 0-9.6-3.2-16-6.4l-67.2-89.6c-6.4-9.6-3.2-19.2 3.2-25.6 9.6-6.4 19.2-3.2 25.6 3.2l67.2 89.6c6.4 9.6 3.2 19.2-3.2 25.6-3.2 3.2-6.4 3.2-9.6 3.2z" fill="#ffffff" p-id="3203"></path></svg>