<svg t="1685075160920" class="icon" viewBox="0 0 1192 1024" version="1.1" xmlns="http://www.w3.org/2000/svg" p-id="2719" width="200" height="200"><path d="M1076.132183 916.254737a23.648718 23.648718 0 0 1 0-47.297437 68.202903 68.202903 0 0 0 55.243405-27.716297 70.094801 70.094801 0 0 0 10.973006-62.432616 395.406569 395.406569 0 0 0-258.527788-263.257532 23.743313 23.743313 0 0 1-5.486503-42.473098A214.919551 214.919551 0 0 0 766.996138 76.819834a23.648718 23.648718 0 0 1 0.851354-47.297436A262.311583 262.311583 0 0 1 939.347996 485.94266a442.514816 442.514816 0 0 1 248.311542 279.244065 117.108453 117.108453 0 0 1-18.351406 104.05436 115.12196 115.12196 0 0 1-93.175949 47.013652z" p-id="2720" fill="#ffffff"></path><path d="M495.981827 602.578138a301.28467 301.28467 0 1 1 301.190075-301.28467 301.66305 301.66305 0 0 1-301.190075 301.28467z m0-555.177309a253.987234 253.987234 0 1 0 253.892639 253.892639A254.271019 254.271019 0 0 0 495.981827 47.400829z" p-id="2721" fill="#ffffff"></path><path d="M860.172088 1023.998297h-728.380522a129.973355 129.973355 0 0 1-105.378689-52.973129A131.770658 131.770658 0 0 1 5.791195 853.254552a510.812314 510.812314 0 0 1 334.109091-340.541543 23.270339 23.270339 0 0 1 19.581139 2.932441 253.041285 253.041285 0 0 0 272.244044 0 23.270339 23.270339 0 0 1 19.959519-2.648657 510.812314 510.812314 0 0 1 334.109091 340.541543 132.432822 132.432822 0 0 1-20.621682 117.865212 130.162545 130.162545 0 0 1-105.000309 52.594749z m-516.015032-462.568929a463.514878 463.514878 0 0 0-293.244107 305.446845 85.135386 85.135386 0 0 0 13.148688 75.675899 83.432678 83.432678 0 0 0 67.446144 33.864964h728.380522a83.148893 83.148893 0 0 0 67.446144-33.864964 85.135386 85.135386 0 0 0 13.243283-75.675899 463.514878 463.514878 0 0 0-293.244107-305.446845 300.244127 300.244127 0 0 1-303.744137 0z" p-id="2722" fill="#ffffff"></path><path d="M495.981827 911.997968a23.743313 23.743313 0 0 1-19.770329-10.689221l-72.175888-109.730053a23.175744 23.175744 0 0 1-2.364872-21.378441l72.175888-189.189746a23.648718 23.648718 0 0 1 44.175806 0l72.270483 189.189746a23.175744 23.175744 0 0 1-2.364872 21.378441l-72.175888 109.730053a23.932503 23.932503 0 0 1-19.770328 10.689221zM450.197908 775.781351l45.783919 69.621826L541.765745 775.781351l-45.783918-119.946299z" p-id="2723" fill="#ffffff"></path></svg>