<svg t="1685075222365" class="icon" viewBox="0 0 1024 1024" version="1.1" xmlns="http://www.w3.org/2000/svg" p-id="7211" width="200" height="200"><path d="M729.6 448l-294.4 294.4-108.8-115.2c-12.8-12.8-32-12.8-44.8 0-12.8 12.8-12.8 32 0 44.8l134.4 134.4c12.8 12.8 32 12.8 44.8 0l313.6-313.6c12.8-12.8 12.8-32 0-44.8-12.8-12.8-32-12.8-44.8 0z" fill="#ffffff" p-id="7212"></path><path d="M832 128h-102.4L716.8 51.2c-6.4-32-32-51.2-64-51.2H371.2c-32 0-57.6 19.2-64 51.2L294.4 128H192C121.6 128 64 185.6 64 256v640c0 70.4 57.6 128 128 128h640c70.4 0 128-57.6 128-128V256c0-70.4-57.6-128-128-128zM371.2 64h281.6l38.4 192H332.8l38.4-192zM896 896c0 38.4-25.6 64-64 64H192c-38.4 0-64-25.6-64-64V256c0-38.4 25.6-64 64-64h89.6l-12.8 64h-44.8c-19.2 0-32 12.8-32 32s12.8 32 32 32h576c19.2 0 32-12.8 32-32s-12.8-32-32-32h-44.8l-12.8-64H832c38.4 0 64 25.6 64 64v640z" fill="#ffffff" p-id="7213"></path></svg>