<svg t="1685007184764" class="icon" viewBox="0 0 1024 1024" version="1.1" xmlns="http://www.w3.org/2000/svg" p-id="2520" width="64" height="64"><path d="M905.28 890.01H119.06c-30.78 0-55.82-25.04-55.82-55.79v-643.8c0-30.75 25.04-55.79 55.82-55.79h786.22c30.78 0 55.82 25.04 55.82 55.79v643.8c0 30.75-25.04 55.79-55.82 55.79zM138.65 814.6H885.7V210.06H138.65V814.6z" fill="#ffffff" p-id="2521"></path><path d="M818.71 403.3h-239.6c-20.84 0-37.71-16.86-37.71-37.71 0-20.84 16.86-37.71 37.71-37.71h239.6c20.84 0 37.71 16.86 37.71 37.71s-16.87 37.71-37.71 37.71zM755.6 548.12H579.11c-20.84 0-37.71-16.86-37.71-37.71 0-20.84 16.86-37.71 37.71-37.71H755.6c20.84 0 37.71 16.86 37.71 37.71s-16.87 37.71-37.71 37.71zM734.54 692.98H579.11c-20.84 0-37.71-16.86-37.71-37.71 0-20.84 16.86-37.71 37.71-37.71h155.43c20.84 0 37.71 16.86 37.71 37.71-0.01 20.84-16.87 37.71-37.71 37.71z" fill="#ffffff" p-id="2522"></path><path d="M442.8 729.95H250.29c-45.29 0-82.11-36.82-82.11-82.08v-23.2c0-59.87 48.72-108.55 108.59-108.55h139.56c59.87 0 108.55 48.68 108.55 108.55v23.2c-0.01 45.26-36.83 82.08-82.08 82.08zM276.77 591.53c-18.3 0-33.18 14.88-33.18 33.14v23.2c0 3.68 3.02 6.66 6.7 6.66H442.8c3.68 0 6.66-2.98 6.66-6.66v-23.2c0-18.26-14.88-33.14-33.14-33.14H276.77zM346.54 513.21c-60.24 0-109.25-49.01-109.25-109.25s49.01-109.25 109.25-109.25 109.25 49.01 109.25 109.25-49.01 109.25-109.25 109.25z m0-143.09c-18.67 0-33.84 15.17-33.84 33.84s15.17 33.84 33.84 33.84 33.84-15.17 33.84-33.84-15.17-33.84-33.84-33.84z" fill="#ffffff" p-id="2523"></path></svg>