<svg t="1684375537991" class="icon" viewBox="0 0 1024 1024" version="1.1" xmlns="http://www.w3.org/2000/svg" p-id="2539" width="32" height="32"><path d="M95.616 224.512m32 0l768 0q32 0 32 32l0 0q0 32-32 32l-768 0q-32 0-32-32l0 0q0-32 32-32Z" fill="#ffa500" p-id="2540"></path><path d="M95.616 480.512m32 0l768 0q32 0 32 32l0 0q0 32-32 32l-768 0q-32 0-32-32l0 0q0-32 32-32Z" fill="#ffa500" p-id="2541"></path><path d="M95.616 736.512m32 0l768 0q32 0 32 32l0 0q0 32-32 32l-768 0q-32 0-32-32l0 0q0-32 32-32Z" fill="#ffa500" p-id="2542"></path></svg>