<svg t="1685007221612" class="icon" viewBox="0 0 1143 1024" version="1.1" xmlns="http://www.w3.org/2000/svg" p-id="3130" width="64" height="64"><path d="M1017.201569 995.929294H890.938983a22.857094 22.857094 0 0 1 0-45.714187h126.262586a80.274114 80.274114 0 0 0 80.182686-80.182686V125.896873A80.182685 80.182685 0 0 0 1017.201569 45.714188H273.157449a80.182685 80.182685 0 0 0-80.182685 80.182685v144.913975a22.857094 22.857094 0 1 1-45.714188 0V125.896873A125.988301 125.988301 0 0 1 273.157449 0h744.04412A125.988301 125.988301 0 0 1 1143.098442 125.896873v744.135548a125.988301 125.988301 0 0 1-125.896873 125.896873z" p-id="3131" fill="#ffffff"></path><path d="M371.442953 713.141329a227.565227 227.565227 0 1 1 227.565227-227.565227A227.839512 227.839512 0 0 1 371.442953 713.141329z m0-409.416266a181.851039 181.851039 0 1 0 181.851039 181.851039A182.033896 182.033896 0 0 0 371.442953 303.725063z" p-id="3132" fill="#ffffff"></path><path d="M640.242377 1023.997806H102.734958a101.394068 101.394068 0 0 1-82.285538-41.234198 102.765494 102.765494 0 0 1-15.999966-91.428375 382.810608 382.810608 0 0 1 250.239464-254.810883 23.131379 23.131379 0 0 1 19.291387 2.559995 181.393897 181.393897 0 0 0 195.016725 0 22.948522 22.948522 0 0 1 19.199959-2.559995 382.353466 382.353466 0 0 1 249.965178 254.628026 103.039779 103.039779 0 0 1-15.999965 91.428376A101.668354 101.668354 0 0 1 640.242377 1023.997806zM258.894623 683.335679a336.54785 336.54785 0 0 0-210.285264 220.890955 57.691305 57.691305 0 0 0 9.142838 51.291318 56.137023 56.137023 0 0 0 45.714188 22.765666H640.242377a56.228451 56.228451 0 0 0 45.714188-22.765666 57.41702 57.41702 0 0 0 9.142837-51.291318 336.54785 336.54785 0 0 0-210.285263-220.890955 226.8338 226.8338 0 0 1-225.096661 0zM655.236631 444.890475a22.948522 22.948522 0 0 1-16.822821-38.399917L751.693567 283.427964a22.765666 22.765666 0 0 1 29.439937-3.474278l68.571281 45.714188 108.342625-119.496887a22.857094 22.857094 0 1 1 33.828499 30.719934l-121.508311 134.399712a22.765666 22.765666 0 0 1-29.622793 3.657135l-68.754139-45.714188-100.022643 108.251197a22.49138 22.49138 0 0 1-16.731392 7.405698z" p-id="3133" fill="#ffffff"></path><path d="M981.453075 374.85634a22.857094 22.857094 0 0 1-22.857094-22.857094V237.713776H844.584796a22.857094 22.857094 0 0 1 0-45.714187h137.142564a22.857094 22.857094 0 0 1 22.857094 22.857093v137.142564a22.857094 22.857094 0 0 1-23.131379 22.857094z" p-id="3134" fill="#ffffff"></path></svg>