<svg t="1685066895233" class="icon" viewBox="0 0 1024 1024" version="1.1" xmlns="http://www.w3.org/2000/svg" p-id="32229" width="64" height="64"><path d="M501.205 365.099l-265.472 220.8c-27.351-37.928-43.744-85.34-43.744-136.58 0-8.806 0.484-17.499 1.427-26.054 0.78-7.372 2.103-15.67 3.831-23.777-1.067 0.725-96.277 48.939-96.277 48.939-9.892-24.978-15.627-53.914-15.627-84.191 0-26.066 4.251-51.139 12.097-74.563 39.754-122.227 172.788-190.003 296.65-149.769 45.909 14.933 84.117 42.603 111.979 77.803 34.629-43.896 83.96-74.845 140.466-85.438 94.798-32.77 227.192 34.686 267.214 157.95 7.327 21.666 11.555 46.62 11.555 72.561 0 30.132-5.705 58.931-16.094 85.377l-96.518-51.058c-4.693-20.949-12.117-40.747-21.845-59.008l90.667 46.187c0.769-6.418 1.207-13.852 1.207-21.387 0-21.273-3.495-41.73-9.941-60.827-17.589-53.377-58.111-96.327-109.901-117.201-10.424-6.453-40.384-14.228-72.161-14.228-21.255 0-41.697 3.479-60.789 9.897-33.145 10.957-62.271 30.727-84.614 56.531 14.998-22.711 6.804-21.75-1.253-20.385 143.979-15.589 259.478 78.277 273.067 207.643 0.845 7.485 1.327 16.162 1.327 24.951 0 53.583-17.915 102.982-48.082 142.534l-75.89-64.573c19.84 48.192 30.848 100.693 30.848 155.435 0.001 0.38 0.002 0.83 0.002 1.281 0 96.116-32.070 184.741-86.094 255.759l-532.575-1.040v-42.667h192c114.411-46.144 193.301-161.493 192-298.219 1.088-64.661-18.645-126.315-48.043-184l29.611-24.555c35.584 60.459 55.211 121.856 60.032 186.773h65.28c11.648 0 21.12 9.472 21.12 21.333 0 0 0 0.001 0 0.001 0 11.707-9.43 21.212-21.109 21.332h-65.163c-3.993 54.029-18.542 103.824-41.589 148.524l85.386-20.524c11.669 0 21.141 9.472 21.141 21.333 0 0 0 0.001 0 0.001 0 11.707-9.43 21.212-21.109 21.332h-97.825c-24.299 40.491-94.4 106.667-94.4 106.667h234.667c40.661-63.509 64-137.387 64-213.333 0-79.147-27.2-159.317-72.171-225.899l-109.291-91.669zM704 896h213.333v42.667h-213.333v-42.667zM501.312 309.504l258.411 216.747c10.149-22.699 16.060-49.193 16.060-77.067 0-7.195-0.394-14.298-1.161-21.289-11.016-104.844-105.416-181.964-211.016-170.828-21.643 2.303-41.447 7.867-59.708 16.222l1.297-1.203-14.229-5.056c-17.694-6.476-38.125-10.445-59.415-10.939 9.185 0.28 2.1-0.118-5.077-0.118-45.879 0-87.964 16.245-120.816 43.297-40.475 32.924-67.258 81.985-70.545 137.371-0.040-1.762-0.43 5.309-0.43 12.471 0 25.543 4.953 49.93 13.951 72.252l252.679-211.859zM451.307 214.635c-7.055-0.781-15.283-1.247-23.612-1.286-11.244-20.721-43.615-35.348-79.082-40.319 14.436 1.405-6.135-2.096-27.523-2.096-31.967 0-62.108 7.821-88.613 21.654-49.607 25.531-86.628 72.043-99.348 127.807-1.67 1.98-5.179 22.557-5.179 43.953 0 7.684 0.452 15.262 1.332 22.709l88.873-46.236c43.136-83.669 134.187-136.597 233.152-126.187z" fill="#ffffff" p-id="32230"></path></svg>