<svg t="1685007099883" class="icon" viewBox="0 0 1024 1024" version="1.1" xmlns="http://www.w3.org/2000/svg" p-id="1748" width="64" height="64"><path d="M865.3 755H135.2c-13.3 0-24 10.7-24 24s10.7 24 24 24h730.1c13.3 0 24-10.7 24-24s-10.7-24-24-24zM165 719.7c4.1 2.7 8.7 4 13.2 4 7.8 0 15.4-3.8 20-10.7l163.3-246L503 530.9c11 5 24 1 30.3-9.2l189.2-305.9L744.7 316c2.5 11.2 12.4 18.8 23.4 18.8 1.7 0 3.5-0.2 5.2-0.6 12.9-2.9 21.1-15.7 18.2-28.6l-36.1-162.8c-1.4-6.3-5.3-11.8-10.8-15.2-5.5-3.4-12.2-4.4-18.4-2.9l-176.6 44.1c-12.9 3.2-20.7 16.2-17.5 29.1 3.2 12.9 16.2 20.7 29.1 17.5l124.1-31-181.8 294-140.8-63.6c-10.7-4.8-23.4-1.2-29.9 8.6L158.3 686.5c-7.3 11-4.3 25.9 6.7 33.2z" fill="#ffffff" p-id="1749"></path><path d="M721.7 469.2l-55.1-49c-9.9-8.8-25.1-7.9-33.9 2-8.8 9.9-7.9 25.1 2 33.9l47.4 42.2h-47c-13.3 0-24 10.7-24 24s10.7 24 24 24H698v40.6h-74.1c-13.3 0-24 10.7-24 24s10.7 24 24 24H698v64.6c0 13.3 10.7 24 24 24s24-10.7 24-24v-64.6h74.1c13.3 0 24-10.7 24-24s-10.7-24-24-24H746v-40.6h62.8c13.3 0 24-10.7 24-24s-10.7-24-24-24H761l47.1-43.4c9.8-9 10.4-24.2 1.4-33.9-9-9.8-24.2-10.4-33.9-1.4l-53.9 49.6z" fill="#ffffff" p-id="1750"></path></svg>