<svg t="1685066265026" class="icon" viewBox="0 0 1024 1024" version="1.1" xmlns="http://www.w3.org/2000/svg" p-id="7254" width="64" height="64"><path d="M390.232886 144.530699c62.870854 0 110.565984 70.820042 110.565985 161.151729 0 80.214538-39.023289 145.253352-90.331687 158.983768v406.853917c0 4.335921-3.613267 7.226535-7.226535 7.226535h-25.292872c-4.335921 0-7.226535-3.613267-7.226535-7.226535V464.666196c-52.031052-13.007763-90.331687-78.769231-90.331687-158.983768C279.666902 215.350741 328.084686 144.530699 390.232886 144.530699m0-46.972477c-90.331687 0-158.261115 89.609033-158.261115 208.846859 0 84.550459 36.132675 156.815808 90.331687 189.335215v375.779817c0 30.351447 24.570219 54.921665 54.921666 54.921665h25.292872c30.351447 0 54.921665-24.570219 54.921665-54.921665v-375.779817C513.08398 462.498236 548.494001 390.232886 548.494001 306.405081c0-119.237826-67.929428-208.84686-158.261115-208.846859z m284.725477 817.321101c-13.007763 0-23.847565-10.839802-23.847566-23.847566V128.632322c0-13.007763 10.839802-23.847565 23.847566-23.847565s23.847565 10.839802 23.847565 23.847565v763.122089c0 13.007763-10.839802 23.124912-23.847565 23.124912z m93.2223 0c-13.007763 0-23.847565-10.839802-23.847565-23.847566V128.632322c0-13.007763 10.839802-23.847565 23.847565-23.847565s23.847565 10.839802 23.847566 23.847565v763.122089c-0.722653 13.007763-10.839802 23.124912-23.847566 23.124912z" fill="#ffffff" p-id="7255"></path></svg>