<svg t="1685075277502" class="icon" viewBox="0 0 1024 1024" version="1.1" xmlns="http://www.w3.org/2000/svg" p-id="8557" width="200" height="200"><path d="M143.992471 650.511059v181.458823l180.374588-104.448c24.877176 4.065882 81.408 8.463059 107.64047 8.463059 229.737412 0 384-170.977882 384-372.013176S623.284706 0 432.007529 0C201.938824 0 15.992471 162.966588 15.992471 364.001882c0 116.464941 44.423529 215.341176 128 286.509177z m464.022588-330.511059a47.977412 47.977412 0 1 1 0 95.924706 47.977412 47.977412 0 0 1 0-95.924706z m-192.030118 0a48.007529 48.007529 0 1 1 0 95.984941 48.007529 48.007529 0 0 1 0-95.984941z m-192 0a48.007529 48.007529 0 1 1 0.030118 96.045176 48.007529 48.007529 0 0 1-0.030118-96.045176z m176.00753 479.984941h-95.984942c76.197647 74.511059 164.773647 119.988706 288.015059 119.988706 26.202353 0 51.772235-2.349176 76.649412-6.415059L847.992471 1024v-181.519059c97.28-66.620235 160.015059-170.014118 160.015058-286.479059 0-103.815529-49.904941-197.240471-129.596235-263.559529l1.596235 27.557647c0.271059 26.142118 0 23.762824 0 47.977412 0 255.216941-201.065412 432.007529-480.015058 432.007529z" fill="#ffffff" p-id="8558"></path></svg>