<svg t="1685066982812" class="icon" viewBox="0 0 1024 1024" version="1.1" xmlns="http://www.w3.org/2000/svg" p-id="34598" width="64" height="64"><path d="M912.744073 424.898029a92.533348 92.533348 0 0 0-31.473928 5.350567l1.101588-254.466708a94.421784 94.421784 0 0 0-93.477567-94.421784L716.346762 78.68482a102.919745 102.919745 0 0 0-94.421784-62.947856h-236.05446a102.919745 102.919745 0 0 0-94.421784 62.947856l-68.927903 2.045805a94.421784 94.421784 0 0 0-94.421784 94.421785L125.895872 430.563336A94.421784 94.421784 0 0 0 0.00016 519.319813v276.498458a123.377798 123.377798 0 0 0 36.195017 87.49752l130.459432 130.302062a31.473928 31.473928 0 0 0 44.535608-44.378239l-130.616801-130.459432A61.688899 61.688899 0 0 1 62.948016 795.818271V519.319813a31.473928 31.473928 0 0 1 62.947856 0 35.880278 35.880278 0 0 0 0 4.09161c0 0.944218 13.06168 101.031309 15.736964 135.495261a149.658528 149.658528 0 0 0 45.479826 107.798203l20.458053 20.458053 69.085273 69.085272a31.473928 31.473928 0 0 0 44.535608-44.378238l-66.567358-66.567358a45.951935 45.951935 0 0 1-8.340591-35.880278 27.224948 27.224948 0 0 1 10.543766-15.736964 36.981865 36.981865 0 0 1 39.657149 3.776872l93.477566 85.766453A59.485724 59.485724 0 0 1 409.161225 826.66272V991.428733a31.473928 31.473928 0 0 0 62.947856 0v-31.473928h62.947856v31.473928a31.473928 31.473928 0 0 0 62.947856 0V826.66272a59.485724 59.485724 0 0 1 19.041726-43.59139l92.21861-84.822236a37.768714 37.768714 0 0 1 40.758736-4.72109 26.4381 26.4381 0 0 1 10.701136 15.736965 45.951935 45.951935 0 0 1-8.340591 35.880277l-66.567358 66.567358a31.473928 31.473928 0 0 0 44.535608 44.378239l69.242642-69.242642 20.458053-20.458053A149.658528 149.658528 0 0 0 865.533181 659.064053c2.517914-34.621321 15.736964-134.708412 15.736964-135.65263a30.372341 30.372341 0 0 0 0-4.09161 31.473928 31.473928 0 0 1 62.947856 0v276.498458a61.688899 61.688899 0 0 1-17.782769 42.961911l-130.459432 130.459432a31.473928 31.473928 0 1 0 44.535608 44.378239l130.459432-130.302062a123.377798 123.377798 0 0 0 36.195017-87.49752V519.319813a94.421784 94.421784 0 0 0-94.421784-94.421784zM385.713148 78.68482h236.054461a39.34241 39.34241 0 0 1 0 78.68482h-236.054461a39.34241 39.34241 0 0 1 0-78.68482z m282.321135 572.196012l-93.320197 85.766454A122.59095 122.59095 0 0 0 535.056937 826.66272V897.006949h-62.947856v-70.344229a122.59095 122.59095 0 0 0-39.49978-90.015434l-94.421784-86.710672a100.71657 100.71657 0 0 0-109.21453-12.746941A78.68482 78.68482 0 0 0 204.580692 656.703509v-2.203175c-2.360545-33.047624-13.21905-117.555121-15.736964-135.65263l1.416327-343.065816a31.473928 31.473928 0 0 1 32.418146-31.473928l62.947856-1.888436A102.762375 102.762375 0 0 0 385.713148 220.317496h236.054461a102.605005 102.605005 0 0 0 99.142873-77.897972l67.511576 1.888436a31.473928 31.473928 0 0 1 31.473928 31.473928l-1.573697 341.492119c-2.045805 14.792746-13.376419 103.234484-15.736964 137.226327v2.203175a78.68482 78.68482 0 0 0-24.234924-19.513836 101.188679 101.188679 0 0 0-110.316118 13.691159z" p-id="34599" fill="#ffffff"></path><path d="M660.952649 456.371957h-125.895712v-125.895713a31.473928 31.473928 0 0 0-62.947856 0v125.895713h-125.895712a31.473928 31.473928 0 0 0 0 62.947856h125.895712v125.895712a31.473928 31.473928 0 0 0 62.947856 0v-125.895712h125.895712a31.473928 31.473928 0 0 0 0-62.947856z" p-id="34600" fill="#ffffff"></path></svg>