<svg t="1685075115245" class="icon" viewBox="0 0 1024 1024" version="1.1" xmlns="http://www.w3.org/2000/svg" p-id="2403" width="200" height="200"><path d="M819.2 190.2592H587.5712v-86.016A54.4768 54.4768 0 0 0 532.48 49.9712h-40.96a54.4768 54.4768 0 0 0-54.4768 54.272v86.016H204.8a118.1696 118.1696 0 0 0-117.76 118.3744v463.6672A118.1696 118.1696 0 0 0 204.8 890.6752h614.4a118.1696 118.1696 0 0 0 117.76-118.3744V308.6336A118.1696 118.1696 0 0 0 819.2 190.2592z m-352.0512-86.016A23.7568 23.7568 0 0 1 491.52 80.6912h40.96a23.7568 23.7568 0 0 1 23.7568 23.552v133.9392A23.7568 23.7568 0 0 1 532.48 261.9392h-40.96a23.7568 23.7568 0 0 1-23.7568-23.7568z m439.0912 668.0576A87.4496 87.4496 0 0 1 819.2 860.16H204.8a87.4496 87.4496 0 0 1-87.04-87.6544V308.6336A87.4496 87.4496 0 0 1 204.8 220.9792h231.6288v17.2032A54.6816 54.6816 0 0 0 491.52 292.6592h40.96a54.6816 54.6816 0 0 0 54.4768-54.4768v-17.408H819.2a87.4496 87.4496 0 0 1 87.04 87.6544z" fill="#ffffff" p-id="2404"></path><path d="M794.2144 473.7024h-168.7552a15.36 15.36 0 0 0 0 30.72h168.7552a15.36 15.36 0 0 0 0-30.72zM753.2544 617.8816h-127.7952a15.36 15.36 0 0 0 0 30.72h127.7952a15.36 15.36 0 0 0 0-30.72zM481.8944 602.7264a163.84 163.84 0 0 0-46.08-28.0576 106.496 106.496 0 0 0 13.1072-10.6496 103.6288 103.6288 0 0 0-72.9088-176.7424 102.4 102.4 0 0 0-72.9088 30.3104 102.4 102.4 0 0 0 13.1072 157.2864 163.84 163.84 0 0 0-102.4 139.0592V716.8a10.0352 10.0352 0 0 0 0 2.4576 14.7456 14.7456 0 0 0 14.7456 14.9504 16.384 16.384 0 0 0 15.9744-15.36 16.9984 16.9984 0 0 0 1.2288-2.048 131.6864 131.6864 0 0 1 121.2416-122.88h14.1312a128.8192 128.8192 0 0 1 80.6912 31.9488A132.7104 132.7104 0 0 1 506.6752 716.8v2.2528a15.36 15.36 0 0 0 30.72 0 43.008 43.008 0 0 0 0-5.5296 162.2016 162.2016 0 0 0-55.5008-110.7968z m-157.0816-163.84a71.68 71.68 0 0 1 51.2-20.48 71.2704 71.2704 0 0 1 50.9952 20.48 72.9088 72.9088 0 0 1 0 102.4 71.68 71.68 0 0 1-45.6704 20.48h-9.216a72.704 72.704 0 0 1-47.3088-123.904z" fill="#ffffff" p-id="2405"></path></svg>